<svg width="150" height="150" fill="none" xmlns="http://www.w3.org/2000/svg"><g clip-path="url(#prefix__clip0_170_4)"><path d="M16.875 135.285V20.302c0-3.039 1.103-5.662 3.31-7.868 2.205-2.206 4.828-3.309 7.867-3.309h45.86c3.038 0 5.661 1.103 7.867 3.31 2.208 2.205 3.312 4.828 3.312 7.867V71.78h10.952c2.652 0 4.942.964 6.871 2.893 1.928 1.928 2.892 4.218 2.892 6.87v40.685c0 2.97 1.051 5.464 3.153 7.483 2.101 2.018 4.647 3.026 7.637 3.026 2.99 0 5.536-1.013 7.638-3.041 2.101-2.028 3.152-4.507 3.152-7.437V66.967a18.965 18.965 0 01-4.286 1.78 16.566 16.566 0 01-4.446.619c-4.516 0-8.333-1.559-11.451-4.675-3.117-3.119-4.675-6.935-4.675-11.451 0-3.785 1.113-7.155 3.338-10.112 2.226-2.955 5.177-4.825 8.853-5.61L98.533 21.33c-.785-.737-1.19-1.652-1.215-2.743-.025-1.092.388-2.062 1.236-2.912.82-.87 1.752-1.272 2.796-1.207 1.044.064 1.983.514 2.817 1.348l25.56 25.635a21.804 21.804 0 013.948 5.357c1.025 1.962 1.537 4.106 1.537 6.43v69.02c0 5.212-1.794 9.618-5.383 13.218-3.587 3.599-7.978 5.398-13.175 5.398-5.195 0-9.606-1.799-13.233-5.398-3.627-3.6-5.44-8.006-5.44-13.218V81.99a2.36 2.36 0 00-.67-1.677c-.448-.472-1.019-.708-1.713-.708H85.09v55.68c0 1.584-.546 2.912-1.636 3.984-1.09 1.071-2.398 1.606-3.925 1.606H22.434c-1.576 0-2.896-.535-3.96-1.606-1.066-1.072-1.599-2.4-1.599-3.984zm8.794-72.745h50.627V20.302c0-.595-.248-1.141-.744-1.639-.497-.496-1.044-.744-1.64-.744h-45.86c-.595 0-1.141.248-1.639.744-.496.498-.744 1.044-.744 1.64V62.54zm92.998-.998c2.266 0 4.214-.82 5.844-2.459 1.629-1.639 2.443-3.591 2.443-5.857 0-2.265-.819-4.213-2.459-5.843-1.639-1.629-3.591-2.443-5.857-2.443-2.265 0-4.212.82-5.841 2.458-1.63 1.64-2.445 3.592-2.445 5.857 0 2.266.819 4.213 2.458 5.842 1.639 1.63 3.592 2.445 5.857 2.445zm-92.998 70.539h50.627V71.334H25.67v60.747z" fill="#E3E3E3"/></g><defs><clipPath id="prefix__clip0_170_4"><path fill="#fff" d="M0 0h150v150H0z"/></clipPath></defs></svg>