<svg width="47" height="48" viewBox="0 0 47 48" fill="none" xmlns="http://www.w3.org/2000/svg">
<g filter="url(#filter0_d_103_14)">
<path d="M23.5 34.5C27.5 34.5 32.1328 33.09 34.5297 29.43C36.9266 25.77 38.125 22.52 38.125 19.68C38.125 15.32 36.7133 11.75 33.8898 8.97C31.0664 6.19 27.6031 5 23.5 5C19.3969 5 15.9336 6.19 13.1102 8.97C10.2867 11.75 8.875 15.32 8.875 19.68C8.875 22.52 10.0734 25.77 12.4703 29.43C14.8672 33.09 19.5 34.5 23.5 34.5ZM23.5 48C16.9594 42.52 12.0742 37.43 8.84453 32.73C5.61484 28.03 4 23.68 4 19.68C4 13.68 5.96016 8.9 9.88047 5.34C13.8008 1.78 18.3406 0 23.5 0C28.6594 0 33.1992 1.78 37.1195 5.34C41.0398 8.9 43 13.68 43 19.68C43 23.68 41.3852 28.03 38.1555 32.73C34.9258 37.43 30.0406 42.52 23.5 48Z" fill="#E3E3E3"/>
</g>
<defs>
<filter id="filter0_d_103_14" x="0" y="0" width="47" height="56" filterUnits="userSpaceOnUse" color-interpolation-filters="sRGB">
<feFlood flood-opacity="0" result="BackgroundImageFix"/>
<feColorMatrix in="SourceAlpha" type="matrix" values="0 0 0 0 0 0 0 0 0 0 0 0 0 0 0 0 0 0 127 0" result="hardAlpha"/>
<feOffset dy="4"/>
<feGaussianBlur stdDeviation="2"/>
<feComposite in2="hardAlpha" operator="out"/>
<feColorMatrix type="matrix" values="0 0 0 0 0 0 0 0 0 0 0 0 0 0 0 0 0 0 0.5 0"/>
<feBlend mode="normal" in2="BackgroundImageFix" result="effect1_dropShadow_103_14"/>
<feBlend mode="normal" in="SourceGraphic" in2="effect1_dropShadow_103_14" result="shape"/>
</filter>
</defs>
</svg>
